<svg xmlns="http://www.w3.org/2000/svg" width="35.5" height="46" viewBox="0 0 35.5 46"><defs><style>.a{fill:#fd0;}</style></defs><g transform="translate(-0.622 -0.06)"><path d="M36.122,18.076a18.241,18.241,0,0,0-4.962-12.53A17.476,17.476,0,0,0,19.071.06h-.7A17.261,17.261,0,0,0,9.712,2.39,17.735,17.735,0,0,0,3.306,8.78,18.1,18.1,0,0,0,1.57,24.045,35.692,35.692,0,0,0,6.424,33.26,66,66,0,0,0,14.8,42.83c1.143,1.09,2.326,2.134,3.511,3.23.171-.132.277-.21.374-.293A71.33,71.33,0,0,0,29.8,33.952a36.753,36.753,0,0,0,5.178-9.4q.161-.457.3-.912a18.321,18.321,0,0,0,.848-5.568Z" transform="translate(0 0)"/><path class="a" d="M32.287,17.872a.733.733,0,0,1,.543.234.817.817,0,0,1,.226.571V32.093a.534.534,0,0,1-.142.361.446.446,0,0,1-.155.11.465.465,0,0,1-.192.04H30.459a.484.484,0,0,1-.411-.23.514.514,0,0,1-.079-.281v-9.15a.182.182,0,0,0,0-.067.161.161,0,0,0-.037-.054.166.166,0,0,0-.053-.035.152.152,0,0,0-.061,0h-.058l-.029.016-.026.024-2.694,2.839a1,1,0,0,0-.121.159A.936.936,0,0,0,26.8,26a1.175,1.175,0,0,0-.055.194,1.03,1.03,0,0,0-.018.2v5.687a.548.548,0,0,1-.04.2.5.5,0,0,1-.105.161.526.526,0,0,1-.155.11.488.488,0,0,1-.19.038H24.13a.453.453,0,0,1-.19-.04.476.476,0,0,1-.155-.108.54.54,0,0,1-.1-.164.488.488,0,0,1-.04-.2V26.4a1.044,1.044,0,0,0-.018-.2A1.342,1.342,0,0,0,23.569,26a1.119,1.119,0,0,0-.09-.178.981.981,0,0,0-.121-.156l-2.673-2.85a.215.215,0,0,0-.026-.024h-.087a.166.166,0,0,0-.061.013.161.161,0,0,0-.05.032.151.151,0,0,0-.037.054.194.194,0,0,0-.013.07v9.115a.486.486,0,0,1-.04.2.521.521,0,0,1-.1.164.476.476,0,0,1-.155.108.445.445,0,0,1-.19.04H17.833a.471.471,0,0,1-.186-.04.48.48,0,0,1-.156-.111.516.516,0,0,1-.105-.161.548.548,0,0,1-.037-.2V18.7a.82.82,0,0,1,.126-.441.8.8,0,0,1,.34-.3.737.737,0,0,1,.3-.062h1.96a.815.815,0,0,1,.161.016.776.776,0,0,1,.153.048.746.746,0,0,1,.142.081.941.941,0,0,1,.124.108L25,22.76l.039.035.05.022.047.016h.1l.05-.016.045-.024a.286.286,0,0,0,.042-.038l4.362-4.624a.8.8,0,0,1,.124-.108.746.746,0,0,1,.142-.081.781.781,0,0,1,.153-.048.677.677,0,0,1,.163-.019Z" transform="translate(-6.726 -7.163)"/></g></svg>